<?xml version="1.0" encoding="UTF-8" standalone="no"?>
<svg
   xmlns:dc="http://purl.org/dc/elements/1.1/"
   xmlns:cc="http://creativecommons.org/ns#"
   xmlns:rdf="http://www.w3.org/1999/02/22-rdf-syntax-ns#"
   xmlns:svg="http://www.w3.org/2000/svg"
   xmlns="http://www.w3.org/2000/svg"
   xmlns:sodipodi="http://sodipodi.sourceforge.net/DTD/sodipodi-0.dtd"
   xmlns:inkscape="http://www.inkscape.org/namespaces/inkscape"
   version="1.1"
   x="0px"
   y="0px"
   viewBox="0 0 96 96"
   enable-background="new 0 0 90 90"
   xml:space="preserve"
   id="svg10"
   sodipodi:docname="nil-active-symbolic.svg"
   inkscape:version="1.0.1 (3bc2e813f5, 2020-09-07)"
   width="96"
   height="96"><metadata
   id="metadata16"><rdf:RDF><cc:Work
       rdf:about=""><dc:format>image/svg+xml</dc:format><dc:type
         rdf:resource="http://purl.org/dc/dcmitype/StillImage" /><dc:title></dc:title></cc:Work></rdf:RDF></metadata><defs
   id="defs14" /><sodipodi:namedview
   pagecolor="#ffffff"
   bordercolor="#666666"
   borderopacity="1"
   objecttolerance="10"
   gridtolerance="10"
   guidetolerance="10"
   inkscape:pageopacity="0"
   inkscape:pageshadow="2"
   inkscape:window-width="1920"
   inkscape:window-height="1020"
   id="namedview12"
   showgrid="false"
   inkscape:zoom="9.5333333"
   inkscape:cx="35.357848"
   inkscape:cy="56.237005"
   inkscape:window-x="0"
   inkscape:window-y="28"
   inkscape:window-maximized="1"
   inkscape:current-layer="g8"
   inkscape:document-rotation="0" /><g
   id="g8"
   transform="matrix(1.3413444,0,0,1.4283319,-0.42156038,-23.842237)"><path
     d="M 65.920103,75.446713 V 55.95088 c 0,-1.574893 -1.361634,-2.852411 -3.037393,-2.852411 H 42.117484 c -1.677026,0 -3.036126,1.277518 -3.036126,2.852411 v 19.497024 c 0,1.577272 1.3591,2.85479 3.036126,2.85479 h 20.763959 c 1.678293,0.0012 3.03866,-1.276329 3.03866,-2.855981 z"
     id="path4-3"
     style="opacity:1;fill:#000000;fill-opacity:1;stroke:none;stroke-width:1.22724;stroke-miterlimit:4;stroke-dasharray:none;stroke-opacity:1" /><path
     d="M 33.117192,44.641548 V 25.145714 c 0,-1.574892 -1.361632,-2.85241 -3.037392,-2.85241 H 9.3145731 c -1.6770261,0 -3.0361256,1.277518 -3.0361256,2.85241 v 19.497024 c 0,1.577273 1.3590995,2.854791 3.0361256,2.854791 H 30.078533 c 1.678294,0.0013 3.038659,-1.27633 3.038659,-2.855981 z"
     id="path4-3-6"
     style="opacity:1;fill:#000000;fill-opacity:1;stroke:none;stroke-width:1.22725;stroke-miterlimit:4;stroke-dasharray:none;stroke-opacity:1" /></g>
</svg>
