<?xml version="1.0" encoding="UTF-8" standalone="no"?>
<svg
   xmlns:dc="http://purl.org/dc/elements/1.1/"
   xmlns:cc="http://creativecommons.org/ns#"
   xmlns:rdf="http://www.w3.org/1999/02/22-rdf-syntax-ns#"
   xmlns:svg="http://www.w3.org/2000/svg"
   xmlns="http://www.w3.org/2000/svg"
   xmlns:sodipodi="http://sodipodi.sourceforge.net/DTD/sodipodi-0.dtd"
   xmlns:inkscape="http://www.inkscape.org/namespaces/inkscape"
   version="1.1"
   x="0px"
   y="0px"
   viewBox="0 0 94 94"
   enable-background="new 0 0 90 90"
   xml:space="preserve"
   id="svg10"
   sodipodi:docname="nil-active-symbolic.svg"
   inkscape:version="1.0.1 (3bc2e813f5, 2020-09-07)"
   width="94"
   height="94"><metadata
   id="metadata16"><rdf:RDF><cc:Work
       rdf:about=""><dc:format>image/svg+xml</dc:format><dc:type
         rdf:resource="http://purl.org/dc/dcmitype/StillImage" /><dc:title></dc:title></cc:Work></rdf:RDF></metadata><defs
   id="defs14" /><sodipodi:namedview
   pagecolor="#ffffff"
   bordercolor="#666666"
   borderopacity="1"
   objecttolerance="10"
   gridtolerance="10"
   guidetolerance="10"
   inkscape:pageopacity="0"
   inkscape:pageshadow="2"
   inkscape:window-width="1920"
   inkscape:window-height="1020"
   id="namedview12"
   showgrid="false"
   inkscape:zoom="9.5333333"
   inkscape:cx="35.178408"
   inkscape:cy="65.588314"
   inkscape:window-x="0"
   inkscape:window-y="28"
   inkscape:window-maximized="1"
   inkscape:current-layer="g8"
   inkscape:document-rotation="0" /><g
   id="g8"
   transform="matrix(1.3413444,0,0,1.4283319,-0.42156038,-23.842237)"><path
     d="M 67.411144,76.529617 V 54.86758 c 0,-1.749882 -1.512926,-3.169346 -3.374881,-3.169346 H 40.963789 c -1.863362,0 -3.373473,1.419464 -3.373473,3.169346 v 21.66336 c 0,1.752524 1.510111,3.171989 3.373473,3.171989 h 23.071066 c 1.86477,0.0013 3.376289,-1.418144 3.376289,-3.173312 z"
     id="path4-3"
     style="opacity:1;fill-opacity:1;stroke:none;stroke-width:1.3636;stroke-miterlimit:4;stroke-dasharray:none;stroke-opacity:1;fill:#000000" /><path
     d="M 33.117192,44.324217 V 22.662178 c 0,-1.74988 -1.512925,-3.169344 -3.37488,-3.169344 H 6.6698376 c -1.8633624,0 -3.3734729,1.419464 -3.3734729,3.169344 v 21.663361 c 0,1.752525 1.5101105,3.17199 3.3734729,3.17199 H 29.740904 c 1.864771,0.0014 3.376288,-1.418145 3.376288,-3.173312 z"
     id="path4-3-6"
     style="opacity:0.5;fill:#000000;fill-opacity:1;stroke:none;stroke-width:1.36361;stroke-miterlimit:4;stroke-dasharray:none;stroke-opacity:1" /></g>
</svg>
